<svg
  width="32"
  height="32"
  viewBox="0 0 32 32"
  fill="none"
  xmlns="http://www.w3.org/2000/svg"
>
  <path
    d="M17.601 11.418L19.3508 12.9985C23.7841 9.39305 26.6596 3.8075 27.5432 1.46541L25.0826 0.973947C23.9786 4.87044 19.6349 9.5602 17.601 11.418Z"
    fill="#618731"
  />
  <path
    fill-rule="evenodd"
    clip-rule="evenodd"
    d="M27.8711 1.28352C27.8176 1.18721 27.7246 1.11926 27.6166 1.09769L25.156 0.606224C24.9642 0.567906 24.7751 0.683508 24.7218 0.871734C24.19 2.74862 22.8646 4.84876 21.395 6.72961C19.9308 8.60345 18.3509 10.2251 17.3481 11.1411C17.27 11.2124 17.2257 11.3134 17.226 11.4191C17.2263 11.5248 17.2712 11.6255 17.3496 11.6963L19.0995 13.2768C19.2367 13.4008 19.4439 13.4062 19.5874 13.2895C24.0905 9.62723 26.9971 3.97519 27.894 1.59779C27.9329 1.49475 27.9245 1.37983 27.8711 1.28352ZM19.3616 12.5029L18.156 11.414C19.1832 10.4436 20.6326 8.92338 21.986 7.19139C23.3915 5.3926 24.7183 3.33426 25.3424 1.40827L27.0295 1.74524C26.0228 4.19508 23.3466 9.15075 19.3616 12.5029Z"
    fill="#618731"
  />
  <path
    d="M14.3106 20.134L11.2718 18.0967C16.1339 11.4113 24.6472 6.42487 28.296 4.76733L29.7118 7.9788C23.5513 10.2441 16.8775 17.0262 14.3106 20.134Z"
    fill="#91C252"
  />
  <path
    fill-rule="evenodd"
    clip-rule="evenodd"
    d="M28.4297 4.41698C28.5233 4.4527 28.5988 4.52439 28.6392 4.61606L30.055 7.82752C30.0967 7.92227 30.0975 8.03008 30.057 8.12538C30.0165 8.22069 29.9384 8.29502 29.8413 8.33076C26.8231 9.44057 23.6546 11.6686 20.9078 14.0251C18.1655 16.3776 15.8702 18.8346 14.5997 20.3728C14.4771 20.5214 14.2618 20.5528 14.1018 20.4455L11.063 18.4081C10.9783 18.3514 10.9204 18.2626 10.9026 18.1622C10.8847 18.0618 10.9086 17.9585 10.9685 17.8761C15.8854 11.1154 24.4657 6.09544 28.1409 4.42591C28.2321 4.38448 28.3361 4.38126 28.4297 4.41698ZM11.8067 18.0038L14.2391 19.6346C15.5688 18.0588 17.792 15.7098 20.4194 13.4558C23.0819 11.1719 26.1841 8.96383 29.2095 7.76905L28.107 5.26823C24.3797 7.02818 16.4994 11.7504 11.8067 18.0038Z"
    fill="#618731"
  />
  <path
    d="M11.1795 18.1221L13.6421 20.8279C19.5388 15.0345 23.2174 5.8798 24.3197 2.02665L20.9347 1.0991C19.6012 7.52598 13.8756 15.1257 11.1795 18.1221Z"
    fill="#91C252"
  />
  <path
    fill-rule="evenodd"
    clip-rule="evenodd"
    d="M24.6465 1.84278C24.5974 1.75546 24.5154 1.69143 24.4188 1.66495L21.0339 0.737404C20.934 0.710038 20.8273 0.725184 20.739 0.779251C20.6506 0.833318 20.5886 0.921494 20.5676 1.02288C19.9142 4.17153 18.1769 7.63352 16.2506 10.6974C14.3275 13.7561 12.2352 16.3881 10.9008 17.8713C10.7719 18.0145 10.7725 18.232 10.9022 18.3745L13.3648 21.0802C13.4334 21.1556 13.5298 21.1998 13.6317 21.2027C13.7336 21.2055 13.8322 21.1668 13.9049 21.0953C19.868 15.2367 23.57 6.01078 24.6802 2.12976C24.7078 2.03344 24.6956 1.9301 24.6465 1.84278ZM13.6552 20.2851L11.6841 18.1193C13.047 16.572 15.043 14.0272 16.8856 11.0966C18.7526 8.12693 20.4799 4.73336 21.2162 1.56501L23.8521 2.28731C22.6601 6.23317 19.1495 14.7228 13.6552 20.2851Z"
    fill="#618731"
  />
  <path
    d="M2.50446 28.3236C2.79063 29.2055 3.32855 29.9353 4.01286 30.4595C4.69545 30.9858 5.53919 31.3178 6.46502 31.3673C8.89492 31.4974 10.9702 29.633 11.1003 27.2031C11.1115 26.9925 11.1078 26.7846 11.0901 26.5804C11.015 25.7177 11.0755 24.8005 11.6027 24.1135L14.4063 20.4597C14.4745 20.3708 14.4755 20.2481 14.4064 20.1599C14.1624 19.8488 13.5742 19.1279 13.0643 18.7322C12.5378 18.3237 11.6616 17.9256 11.2907 17.7658C11.1877 17.7215 11.0691 17.754 11.0006 17.8428L8.19173 21.4921C7.66353 22.1783 6.79278 22.4728 5.93983 22.6223C5.73791 22.6577 5.53603 22.7077 5.33543 22.7727C3.02086 23.5238 1.75339 26.009 2.50446 28.3236Z"
    fill="#EDEDED"
  />
  <path
    fill-rule="evenodd"
    clip-rule="evenodd"
    d="M10.7035 17.6141C10.8735 17.3932 11.1742 17.3073 11.4391 17.4214C11.8063 17.5796 12.7249 17.9942 13.2943 18.436C13.8457 18.8639 14.4599 19.6204 14.7015 19.9286C14.8793 20.1553 14.8731 20.4673 14.7038 20.688L11.9002 24.3417C11.4623 24.9125 11.3906 25.7074 11.4637 26.5479C11.4829 26.7695 11.4869 26.995 11.4747 27.2232C11.3336 29.8599 9.08169 31.883 6.44498 31.7418C5.44106 31.6881 4.5251 31.3279 3.78433 30.7568C3.04186 30.1879 2.45807 29.3956 2.14778 28.4393C1.33279 25.9278 2.70813 23.2311 5.21969 22.4161C5.43702 22.3455 5.65594 22.2914 5.87508 22.253C6.70609 22.1073 7.45579 21.8334 7.89458 21.2634L10.7035 17.6141ZM11.2365 18.1512L8.4889 21.7208C7.87129 22.5232 6.87949 22.8383 6.0046 22.9917C5.8199 23.0241 5.63506 23.0698 5.45118 23.1294L5.34939 22.8157L5.45118 23.1294C3.33361 23.8166 2.17402 26.0903 2.86116 28.2078C3.12313 29.0151 3.61499 29.6824 4.24089 30.1618L4.24186 30.1625C4.8662 30.6439 5.63753 30.9475 6.48507 30.9929C8.70816 31.1119 10.6068 29.4062 10.7258 27.1831C10.7361 26.9901 10.7327 26.7997 10.7165 26.6129C10.6395 25.728 10.6888 24.6885 11.3052 23.8852L14.0477 20.311C13.7774 19.9718 13.2661 19.3635 12.8344 19.0285C12.3879 18.682 11.6431 18.3302 11.2365 18.1512Z"
    fill="#9C9C9C"
  />
</svg>
